<mxfile host="app.diagrams.net" modified="2024-01-14T17:45:47.629Z" agent="Mozilla/5.0 (Windows NT 10.0; Win64; x64) AppleWebKit/537.36 (KHTML, like Gecko) Chrome/120.0.0.0 Safari/537.36 Edg/120.0.0.0" etag="cjVLrapbsEgGapztJu1g" version="22.1.18" type="device">
  <diagram name="PÃ¡gina-1" id="dmKVDUN2Lsdf0M6AFe-A">
    <mxGraphModel dx="786" dy="505" grid="1" gridSize="10" guides="1" tooltips="1" connect="1" arrows="1" fold="1" page="1" pageScale="1" pageWidth="827" pageHeight="1169" math="0" shadow="0">
      <root>
        <mxCell id="0" />
        <mxCell id="1" parent="0" />
        <mxCell id="rxSn5ESXaZDenTGERI-G-1" value="" style="rounded=1;whiteSpace=wrap;html=1;arcSize=6;" vertex="1" parent="1">
          <mxGeometry x="20" y="30" width="560" height="380" as="geometry" />
        </mxCell>
        <mxCell id="rxSn5ESXaZDenTGERI-G-3" value="" style="shape=image;verticalLabelPosition=bottom;labelBackgroundColor=default;verticalAlign=top;aspect=fixed;imageAspect=0;image=https://upload.wikimedia.org/wikipedia/commons/thumb/d/d0/Google_Colaboratory_SVG_Logo.svg/1200px-Google_Colaboratory_SVG_Logo.svg.png;" vertex="1" parent="1">
          <mxGeometry x="500" y="360.73" width="80" height="49.27" as="geometry" />
        </mxCell>
        <mxCell id="rxSn5ESXaZDenTGERI-G-19" style="edgeStyle=orthogonalEdgeStyle;rounded=0;orthogonalLoop=1;jettySize=auto;html=1;entryX=0;entryY=0.75;entryDx=0;entryDy=0;" edge="1" parent="1" source="rxSn5ESXaZDenTGERI-G-6" target="rxSn5ESXaZDenTGERI-G-14">
          <mxGeometry relative="1" as="geometry" />
        </mxCell>
        <mxCell id="rxSn5ESXaZDenTGERI-G-30" style="edgeStyle=orthogonalEdgeStyle;rounded=0;orthogonalLoop=1;jettySize=auto;html=1;" edge="1" parent="1" source="rxSn5ESXaZDenTGERI-G-6" target="rxSn5ESXaZDenTGERI-G-29">
          <mxGeometry relative="1" as="geometry">
            <Array as="points">
              <mxPoint x="253" y="300" />
              <mxPoint x="253" y="335" />
            </Array>
          </mxGeometry>
        </mxCell>
        <mxCell id="rxSn5ESXaZDenTGERI-G-6" value="" style="rounded=1;whiteSpace=wrap;html=1;arcSize=10;" vertex="1" parent="1">
          <mxGeometry x="68" y="53" width="140" height="310" as="geometry" />
        </mxCell>
        <mxCell id="rxSn5ESXaZDenTGERI-G-5" value="Bark.ipynb" style="image;aspect=fixed;html=1;points=[];align=center;fontSize=12;image=img/lib/azure2/general/File.svg;" vertex="1" parent="1">
          <mxGeometry x="110" y="73" width="56.00000000000001" height="69" as="geometry" />
        </mxCell>
        <mxCell id="rxSn5ESXaZDenTGERI-G-8" value="Whisper" style="sketch=0;outlineConnect=0;fontColor=#232F3E;gradientColor=none;fillColor=#01A88D;strokeColor=none;dashed=0;verticalLabelPosition=bottom;verticalAlign=top;align=center;html=1;fontSize=12;fontStyle=0;aspect=fixed;pointerEvents=1;shape=mxgraph.aws4.sagemaker_model;" vertex="1" parent="1">
          <mxGeometry x="114" y="184" width="48" height="48" as="geometry" />
        </mxCell>
        <mxCell id="rxSn5ESXaZDenTGERI-G-9" value="Bark" style="sketch=0;outlineConnect=0;fontColor=#232F3E;gradientColor=none;fillColor=#01A88D;strokeColor=none;dashed=0;verticalLabelPosition=bottom;verticalAlign=top;align=center;html=1;fontSize=12;fontStyle=0;aspect=fixed;pointerEvents=1;shape=mxgraph.aws4.sagemaker_model;" vertex="1" parent="1">
          <mxGeometry x="114" y="270" width="48" height="48" as="geometry" />
        </mxCell>
        <mxCell id="rxSn5ESXaZDenTGERI-G-23" style="edgeStyle=orthogonalEdgeStyle;rounded=0;orthogonalLoop=1;jettySize=auto;html=1;exitX=1;exitY=0.75;exitDx=0;exitDy=0;entryX=0;entryY=0.75;entryDx=0;entryDy=0;" edge="1" parent="1" source="rxSn5ESXaZDenTGERI-G-14" target="rxSn5ESXaZDenTGERI-G-20">
          <mxGeometry relative="1" as="geometry" />
        </mxCell>
        <mxCell id="rxSn5ESXaZDenTGERI-G-31" value="" style="edgeStyle=orthogonalEdgeStyle;rounded=0;orthogonalLoop=1;jettySize=auto;html=1;" edge="1" parent="1" source="rxSn5ESXaZDenTGERI-G-14" target="rxSn5ESXaZDenTGERI-G-29">
          <mxGeometry relative="1" as="geometry" />
        </mxCell>
        <mxCell id="rxSn5ESXaZDenTGERI-G-14" value="" style="rounded=1;whiteSpace=wrap;html=1;arcSize=10;" vertex="1" parent="1">
          <mxGeometry x="240" y="53" width="140" height="207" as="geometry" />
        </mxCell>
        <mxCell id="rxSn5ESXaZDenTGERI-G-15" value="SadTalker.ipynb" style="image;aspect=fixed;html=1;points=[];align=center;fontSize=12;image=img/lib/azure2/general/File.svg;" vertex="1" parent="1">
          <mxGeometry x="282" y="71" width="56.00000000000001" height="69" as="geometry" />
        </mxCell>
        <mxCell id="rxSn5ESXaZDenTGERI-G-16" value="SadTalker" style="sketch=0;outlineConnect=0;fontColor=#232F3E;gradientColor=none;fillColor=#01A88D;strokeColor=none;dashed=0;verticalLabelPosition=bottom;verticalAlign=top;align=center;html=1;fontSize=12;fontStyle=0;aspect=fixed;pointerEvents=1;shape=mxgraph.aws4.sagemaker_model;" vertex="1" parent="1">
          <mxGeometry x="286" y="182" width="48" height="48" as="geometry" />
        </mxCell>
        <mxCell id="rxSn5ESXaZDenTGERI-G-20" value="" style="rounded=1;whiteSpace=wrap;html=1;arcSize=10;" vertex="1" parent="1">
          <mxGeometry x="420" y="53" width="140" height="207" as="geometry" />
        </mxCell>
        <mxCell id="rxSn5ESXaZDenTGERI-G-21" value="createSubtitles.ipynb" style="image;aspect=fixed;html=1;points=[];align=center;fontSize=12;image=img/lib/azure2/general/File.svg;" vertex="1" parent="1">
          <mxGeometry x="462" y="71" width="56.00000000000001" height="69" as="geometry" />
        </mxCell>
        <mxCell id="rxSn5ESXaZDenTGERI-G-24" value="" style="shape=image;verticalLabelPosition=bottom;labelBackgroundColor=default;verticalAlign=top;aspect=fixed;imageAspect=0;image=https://upload.wikimedia.org/wikipedia/commons/thumb/c/c3/Python-logo-notext.svg/1869px-Python-logo-notext.svg.png;" vertex="1" parent="1">
          <mxGeometry x="99" y="120" width="27" height="29.59" as="geometry" />
        </mxCell>
        <mxCell id="rxSn5ESXaZDenTGERI-G-25" value="" style="shape=image;verticalLabelPosition=bottom;labelBackgroundColor=default;verticalAlign=top;aspect=fixed;imageAspect=0;image=https://upload.wikimedia.org/wikipedia/commons/thumb/c/c3/Python-logo-notext.svg/1869px-Python-logo-notext.svg.png;" vertex="1" parent="1">
          <mxGeometry x="271" y="120" width="27" height="29.59" as="geometry" />
        </mxCell>
        <mxCell id="rxSn5ESXaZDenTGERI-G-26" value="" style="shape=image;verticalLabelPosition=bottom;labelBackgroundColor=default;verticalAlign=top;aspect=fixed;imageAspect=0;image=https://upload.wikimedia.org/wikipedia/commons/thumb/c/c3/Python-logo-notext.svg/1869px-Python-logo-notext.svg.png;" vertex="1" parent="1">
          <mxGeometry x="450" y="120" width="27" height="29.59" as="geometry" />
        </mxCell>
        <mxCell id="rxSn5ESXaZDenTGERI-G-28" value="MoviePy" style="image;html=1;image=img/lib/clip_art/computers/Software_128x128.png" vertex="1" parent="1">
          <mxGeometry x="470" y="184" width="40" height="40" as="geometry" />
        </mxCell>
        <mxCell id="rxSn5ESXaZDenTGERI-G-29" value="TuChisteDiario" style="image;aspect=fixed;html=1;points=[];align=center;fontSize=12;image=img/lib/azure2/general/Folder_Blank.svg;" vertex="1" parent="1">
          <mxGeometry x="298" y="300" width="86.25" height="70" as="geometry" />
        </mxCell>
        <mxCell id="rxSn5ESXaZDenTGERI-G-2" value="" style="dashed=0;outlineConnect=0;html=1;align=center;labelPosition=center;verticalLabelPosition=bottom;verticalAlign=top;shape=mxgraph.weblogos.google_drive" vertex="1" parent="1">
          <mxGeometry x="373" y="349" width="30" height="27" as="geometry" />
        </mxCell>
        <mxCell id="rxSn5ESXaZDenTGERI-G-32" style="edgeStyle=orthogonalEdgeStyle;rounded=0;orthogonalLoop=1;jettySize=auto;html=1;entryX=0.986;entryY=0.55;entryDx=0;entryDy=0;entryPerimeter=0;" edge="1" parent="1" source="rxSn5ESXaZDenTGERI-G-20" target="rxSn5ESXaZDenTGERI-G-29">
          <mxGeometry relative="1" as="geometry">
            <Array as="points">
              <mxPoint x="490" y="339" />
            </Array>
          </mxGeometry>
        </mxCell>
      </root>
    </mxGraphModel>
  </diagram>
</mxfile>
